<?xml version="1.0" encoding="UTF-8" standalone="no"?>
<!-- Created with Inkscape (http://www.inkscape.org/) -->

<svg
   width="975.51764"
   height="224.33009"
   viewBox="0 0 258.10571 59.354002"
   version="1.1"
   id="svg20138"
   inkscape:version="1.2 (56b05e47e7, 2022-06-09, custom)"
   sodipodi:docname="logo.svg"
   inkscape:export-filename="../6979356c/bootplotlogo.svg"
   inkscape:export-xdpi="96"
   inkscape:export-ydpi="96"
   xmlns:inkscape="http://www.inkscape.org/namespaces/inkscape"
   xmlns:sodipodi="http://sodipodi.sourceforge.net/DTD/sodipodi-0.dtd"
   xmlns:xlink="http://www.w3.org/1999/xlink"
   xmlns="http://www.w3.org/2000/svg"
   xmlns:svg="http://www.w3.org/2000/svg">
  <sodipodi:namedview
     id="namedview20140"
     pagecolor="#ffffff"
     bordercolor="#000000"
     borderopacity="0.25"
     inkscape:showpageshadow="2"
     inkscape:pageopacity="0.0"
     inkscape:pagecheckerboard="0"
     inkscape:deskcolor="#d1d1d1"
     inkscape:document-units="px"
     showgrid="false"
     inkscape:zoom="1"
     inkscape:cx="193.5"
     inkscape:cy="-39.5"
     inkscape:window-width="2488"
     inkscape:window-height="1376"
     inkscape:window-x="72"
     inkscape:window-y="27"
     inkscape:window-maximized="1"
     inkscape:current-layer="layer1"
     showguides="true" />
  <defs
     id="defs20135">
    <linearGradient
       inkscape:collect="always"
       id="linearGradient24062">
      <stop
         style="stop-color:#ffcc00;stop-opacity:1;"
         offset="0"
         id="stop24058" />
      <stop
         style="stop-color:#ff7f2a;stop-opacity:1"
         offset="1"
         id="stop24060" />
    </linearGradient>
    <linearGradient
       inkscape:collect="always"
       xlink:href="#linearGradient24062"
       id="linearGradient24064"
       x1="55.405918"
       y1="63.227146"
       x2="81.226562"
       y2="63.227146"
       gradientUnits="userSpaceOnUse" />
    <linearGradient
       inkscape:collect="always"
       xlink:href="#linearGradient24062"
       id="linearGradient24072"
       x1="76.915199"
       y1="58.904415"
       x2="59.717285"
       y2="58.904415"
       gradientUnits="userSpaceOnUse" />
    <linearGradient
       inkscape:collect="always"
       xlink:href="#linearGradient24062"
       id="linearGradient28494"
       gradientUnits="userSpaceOnUse"
       x1="76.915199"
       y1="58.904415"
       x2="59.717285"
       y2="58.904415" />
    <linearGradient
       inkscape:collect="always"
       xlink:href="#linearGradient24062"
       id="linearGradient28496"
       gradientUnits="userSpaceOnUse"
       x1="55.405918"
       y1="63.227146"
       x2="81.226562"
       y2="63.227146" />
    <linearGradient
       inkscape:collect="always"
       xlink:href="#linearGradient24062"
       id="linearGradient28504"
       gradientUnits="userSpaceOnUse"
       x1="76.915199"
       y1="58.904415"
       x2="59.717285"
       y2="58.904415" />
    <linearGradient
       inkscape:collect="always"
       xlink:href="#linearGradient24062"
       id="linearGradient28506"
       gradientUnits="userSpaceOnUse"
       x1="55.405918"
       y1="63.227146"
       x2="81.226562"
       y2="63.227146" />
    <linearGradient
       inkscape:collect="always"
       xlink:href="#linearGradient24062"
       id="linearGradient36818"
       x1="12.431799"
       y1="53.015625"
       x2="42.563808"
       y2="53.015625"
       gradientUnits="userSpaceOnUse" />
    <linearGradient
       inkscape:collect="always"
       xlink:href="#linearGradient24062"
       id="linearGradient39004"
       x1="38.252445"
       y1="58.904415"
       x2="21.054527"
       y2="58.904415"
       gradientUnits="userSpaceOnUse" />
    <linearGradient
       inkscape:collect="always"
       xlink:href="#linearGradient24062"
       id="linearGradient53810"
       x1="154.75757"
       y1="65.461121"
       x2="184.9019"
       y2="65.461121"
       gradientUnits="userSpaceOnUse" />
    <linearGradient
       inkscape:collect="always"
       xlink:href="#linearGradient24062"
       id="linearGradient53818"
       x1="180.57916"
       y1="58.904156"
       x2="163.38033"
       y2="58.904156"
       gradientUnits="userSpaceOnUse" />
    <linearGradient
       inkscape:collect="always"
       xlink:href="#linearGradient24062"
       id="linearGradient54084"
       x1="133.80061"
       y1="53.015625"
       x2="152.29716"
       y2="53.015625"
       gradientUnits="userSpaceOnUse" />
    <linearGradient
       inkscape:collect="always"
       xlink:href="#linearGradient24062"
       id="linearGradient54092"
       gradientUnits="userSpaceOnUse"
       x1="133.80061"
       y1="53.015625"
       x2="152.29716"
       y2="53.015625" />
    <linearGradient
       inkscape:collect="always"
       xlink:href="#linearGradient24062"
       id="linearGradient54094"
       gradientUnits="userSpaceOnUse"
       x1="133.80061"
       y1="53.015625"
       x2="152.29716"
       y2="53.015625" />
    <linearGradient
       inkscape:collect="always"
       xlink:href="#linearGradient24062"
       id="linearGradient54096"
       gradientUnits="userSpaceOnUse"
       x1="133.80061"
       y1="53.015625"
       x2="152.29716"
       y2="53.015625" />
    <linearGradient
       inkscape:collect="always"
       xlink:href="#linearGradient24062"
       id="linearGradient54113"
       gradientUnits="userSpaceOnUse"
       x1="133.80061"
       y1="53.015625"
       x2="152.29716"
       y2="53.015625" />
    <linearGradient
       inkscape:collect="always"
       xlink:href="#linearGradient24062"
       id="linearGradient54115"
       gradientUnits="userSpaceOnUse"
       x1="133.80061"
       y1="53.015625"
       x2="152.29716"
       y2="53.015625" />
    <linearGradient
       inkscape:collect="always"
       xlink:href="#linearGradient24062"
       id="linearGradient54123"
       gradientUnits="userSpaceOnUse"
       x1="133.80061"
       y1="53.015625"
       x2="152.29716"
       y2="53.015625"
       gradientTransform="translate(60.498981,2.1910812)" />
  </defs>
  <g
     inkscape:label="Layer 1"
     inkscape:groupmode="layer"
     id="layer1"
     transform="translate(-12.431799,-32.096749)">
    <g
       id="g54105"
       transform="translate(5e-6,2.1910812)">
      <path
         id="path52346"
         style="opacity:1;fill:url(#linearGradient53818);fill-opacity:1;stroke-width:0.21651"
         d="m 171.97916,41.682726 a 17.221575,17.221575 0 0 0 -17.22168,17.221688 17.221575,17.221575 0 0 0 17.22168,17.22117 17.221575,17.221575 0 0 0 17.22169,-17.22117 17.221575,17.221575 0 0 0 -17.22169,-17.221688 z m 0,8.62273 a 8.598958,8.598958 0 0 1 8.59896,8.598958 8.598958,8.598958 0 0 1 -8.59896,8.598958 8.598958,8.598958 0 0 1 -8.59896,-8.598958 8.598958,8.598958 0 0 1 8.59896,-8.598958 z" />
      <path
         id="circle20619"
         style="opacity:1;fill:url(#linearGradient53810);fill-opacity:1;stroke-width:0.21651"
         d="m 171.97925,41.662572 a 12.921926,12.921926 0 0 0 -1.39423,0.08372 17.221575,17.221575 0 0 0 -15.82745,17.158126 17.221575,17.221575 0 0 0 0.0238,0.802018 v 20.197733 c 0,5.182954 3.83516,9.355501 8.59895,9.355501 V 58.905964 a 8.598958,8.598958 0 0 1 0,-0.0015 8.598958,8.598958 0 0 1 0.0336,-0.726571 8.598958,8.598958 0 0 1 0.0253,-0.222725 8.598958,8.598958 0 0 1 0.0713,-0.512631 8.598958,8.598958 0 0 1 0.0455,-0.240295 8.598958,8.598958 0 0 1 0.12041,-0.511597 8.598958,8.598958 0 0 1 0.0543,-0.203088 8.598958,8.598958 0 0 1 0.22479,-0.67076 8.598958,8.598958 0 0 1 0.007,-0.01912 8.598958,8.598958 0 0 1 0.30386,-0.688847 8.598958,8.598958 0 0 1 0.0739,-0.140043 8.598958,8.598958 0 0 1 0.28629,-0.514181 8.598958,8.598958 0 0 1 0.1049,-0.166398 8.598958,8.598958 0 0 1 0.32505,-0.473873 8.598958,8.598958 0 0 1 0.10387,-0.14056 8.598958,8.598958 0 0 1 0.43873,-0.529166 8.598958,8.598958 0 0 1 0.0326,-0.03772 8.598958,8.598958 0 0 1 0.54777,-0.54777 8.598958,8.598958 0 0 1 0.0403,-0.03462 8.598958,8.598958 0 0 1 0.53382,-0.442867 8.598958,8.598958 0 0 1 0.12041,-0.08888 8.598958,8.598958 0 0 1 0.50333,-0.345199 8.598958,8.598958 0 0 1 0.13591,-0.08527 8.598958,8.598958 0 0 1 0.59221,-0.329695 8.598958,8.598958 0 0 1 0.0548,-0.02894 8.598958,8.598958 0 0 1 1.42782,-0.554488 8.598958,8.598958 0 0 1 0.11731,-0.03152 8.598958,8.598958 0 0 1 0.61857,-0.145727 8.598958,8.598958 0 0 1 0.14366,-0.02687 8.598958,8.598958 0 0 1 0.66611,-0.09302 8.598958,8.598958 0 0 1 0.0739,-0.0083 8.598958,8.598958 0 0 1 0.77205,-0.03824 8.598958,8.598958 0 0 1 8.09046,5.688541 8.598958,8.598958 0 0 1 0.0879,0.255798 8.598958,8.598958 0 0 1 0.15038,0.518315 8.598958,8.598958 0 0 1 0.062,0.257865 8.598958,8.598958 0 0 1 0.001,0.0052 8.598958,8.598958 0 0 1 0.001,0.0057 8.598958,8.598958 0 0 1 0.0522,0.250631 8.598958,8.598958 0 0 1 0.002,0.0083 8.598958,8.598958 0 0 1 5.2e-4,0.0047 8.598958,8.598958 0 0 1 0.046,0.260966 8.598958,8.598958 0 0 1 0.0372,0.258899 8.598958,8.598958 0 0 1 5.1e-4,0.0088 8.598958,8.598958 0 0 1 0.003,0.02842 8.598958,8.598958 0 0 1 0.0248,0.224793 8.598958,8.598958 0 0 1 0.004,0.04599 8.598958,8.598958 0 0 1 0.0155,0.201021 8.598958,8.598958 0 0 1 0.005,0.06615 8.598958,8.598958 0 0 1 0.008,0.176216 8.598958,8.598958 0 0 1 0.004,0.09612 8.598958,8.598958 0 0 1 0.004,0.236678 8.598958,8.598958 0 0 1 0,5.16e-4 8.598958,8.598958 0 0 1 0,5.17e-4 8.598958,8.598958 0 0 1 0,5.17e-4 8.598958,8.598958 0 0 1 0,5.17e-4 8.598958,8.598958 0 0 1 0,5.16e-4 8.598958,8.598958 0 0 1 -0.0238,0.625285 8.598958,8.598958 0 0 1 -0.002,0.02997 8.598958,8.598958 0 0 1 -0.0698,0.618567 8.598958,8.598958 0 0 1 -5.2e-4,0.0052 8.598958,8.598958 0 0 1 -5.1e-4,0.0031 8.598958,8.598958 0 0 1 -0.11834,0.626835 8.598958,8.598958 0 0 1 -5.2e-4,0.0016 8.598958,8.598958 0 0 1 -5.2e-4,0.0031 8.598958,8.598958 0 0 1 -0.16536,0.615983 8.598958,8.598958 0 0 1 -5.2e-4,0.0026 8.598958,8.598958 0 0 1 -5.1e-4,0.0016 8.598958,8.598958 0 0 1 -7.54321,6.038908 12.921926,12.921926 0 0 0 12.24835,-12.89482 12.921926,12.921926 0 0 0 -12.9217,-12.921692 z" />
    </g>
    <g
       id="g28502"
       transform="translate(156.90274,2.1910812)">
      <path
         id="path28498"
         style="opacity:1;fill:url(#linearGradient28504);fill-opacity:1;stroke-width:0.21651"
         d="M 68.316242,41.682726 A 17.221575,17.221575 0 0 0 51.094555,58.904414 17.221575,17.221575 0 0 0 68.316242,76.125584 17.221575,17.221575 0 0 0 85.537929,58.904414 17.221575,17.221575 0 0 0 68.316242,41.682726 Z m 0,8.622729 a 8.598958,8.598958 0 0 1 8.598958,8.598959 8.598958,8.598958 0 0 1 -8.598958,8.598958 8.598958,8.598958 0 0 1 -8.598958,-8.598958 8.598958,8.598958 0 0 1 8.598958,-8.598959 z" />
      <path
         id="path28500"
         style="opacity:1;fill:url(#linearGradient28506);fill-opacity:1;stroke-width:0.162308"
         d="M 68.949278,50.32871 A 8.598958,8.598958 0 0 1 76.9152,58.904414 8.598958,8.598958 0 0 1 68.316242,67.503372 8.598958,8.598958 0 0 1 59.717284,58.904414 8.598958,8.598958 0 0 1 67.673387,50.329227 12.910267,12.910267 0 0 0 55.405919,63.215261 12.910267,12.910267 0 0 0 68.316242,76.125584 12.910267,12.910267 0 0 0 81.226565,63.215261 12.910267,12.910267 0 0 0 68.949278,50.32871 Z" />
    </g>
    <g
       id="g28486"
       style="stroke-width:1.00012;stroke-dasharray:none"
       transform="translate(0,2.1910812)">
      <path
         id="circle20559"
         style="opacity:1;fill:url(#linearGradient24072);fill-opacity:1;stroke-width:1.00012;stroke-dasharray:none"
         d="M 68.316242,41.682726 A 17.221575,17.221575 0 0 0 51.094555,58.904414 17.221575,17.221575 0 0 0 68.316242,76.125584 17.221575,17.221575 0 0 0 85.537929,58.904414 17.221575,17.221575 0 0 0 68.316242,41.682726 Z m 0,8.622729 a 8.598958,8.598958 0 0 1 8.598958,8.598959 8.598958,8.598958 0 0 1 -8.598958,8.598958 8.598958,8.598958 0 0 1 -8.598958,-8.598958 8.598958,8.598958 0 0 1 8.598958,-8.598959 z" />
      <path
         id="circle21849"
         style="opacity:1;fill:url(#linearGradient24064);fill-opacity:1;stroke-width:1.00012;stroke-dasharray:none"
         d="M 68.949278,50.32871 A 8.598958,8.598958 0 0 1 76.9152,58.904414 8.598958,8.598958 0 0 1 68.316242,67.503372 8.598958,8.598958 0 0 1 59.717284,58.904414 8.598958,8.598958 0 0 1 67.673387,50.329227 12.910267,12.910267 0 0 0 55.405919,63.215261 12.910267,12.910267 0 0 0 68.316242,76.125584 12.910267,12.910267 0 0 0 81.226565,63.215261 12.910267,12.910267 0 0 0 68.949278,50.32871 Z" />
    </g>
    <g
       id="g28492"
       transform="translate(38.710297,2.1910812)">
      <path
         id="path28488"
         style="opacity:1;fill:url(#linearGradient28494);fill-opacity:1;stroke-width:0.21651"
         d="M 68.316242,41.682726 A 17.221575,17.221575 0 0 0 51.094555,58.904414 17.221575,17.221575 0 0 0 68.316242,76.125584 17.221575,17.221575 0 0 0 85.537929,58.904414 17.221575,17.221575 0 0 0 68.316242,41.682726 Z m 0,8.622729 a 8.598958,8.598958 0 0 1 8.598958,8.598959 8.598958,8.598958 0 0 1 -8.598958,8.598958 8.598958,8.598958 0 0 1 -8.598958,-8.598958 8.598958,8.598958 0 0 1 8.598958,-8.598959 z" />
      <path
         id="path28490"
         style="opacity:1;fill:url(#linearGradient28496);fill-opacity:1;stroke-width:0.162308"
         d="M 68.949278,50.32871 A 8.598958,8.598958 0 0 1 76.9152,58.904414 8.598958,8.598958 0 0 1 68.316242,67.503372 8.598958,8.598958 0 0 1 59.717284,58.904414 8.598958,8.598958 0 0 1 67.673387,50.329227 12.910267,12.910267 0 0 0 55.405919,63.215261 12.910267,12.910267 0 0 0 68.316242,76.125584 12.910267,12.910267 0 0 0 81.226565,63.215261 12.910267,12.910267 0 0 0 68.949278,50.32871 Z" />
    </g>
    <g
       id="g54101"
       transform="translate(0,2.1910812)">
      <path
         id="path20557"
         style="opacity:1;fill:url(#linearGradient39004);fill-opacity:1;stroke-width:0.216213"
         d="M 29.629715,41.682726 A 17.197916,17.197916 0 0 0 12.431799,58.880643 17.197916,17.197916 0 0 0 29.629715,76.078559 17.197916,17.197916 0 0 0 46.827632,58.880643 17.197916,17.197916 0 0 0 29.629715,41.682726 Z m 0.02377,8.62273 a 8.598958,8.598958 0 0 1 8.598958,8.598958 8.598958,8.598958 0 0 1 -8.598958,8.598958 8.598958,8.598958 0 0 1 -8.598959,-8.598958 8.598958,8.598958 0 0 1 8.598959,-8.598958 z" />
      <path
         id="rect20627"
         style="opacity:1;fill:url(#linearGradient36818);fill-opacity:1;stroke-width:0.267445"
         d="m 12.431799,29.905668 v 28.974975 0.02377 h 5.17e-4 a 17.197916,17.197916 0 0 0 15.360302,17.072859 12.910267,12.910267 0 0 0 1.860869,0.148311 12.910267,12.910267 0 0 0 12.910322,-12.910322 12.910267,12.910267 0 0 0 -12.235945,-12.882935 8.598958,8.598958 0 0 1 7.924581,8.572087 8.598958,8.598958 0 0 1 -8.598958,8.598958 8.598958,8.598958 0 0 1 -8.598959,-8.598958 V 35.084679 c 0,-2.869067 -3.845757,-5.179011 -8.622729,-5.179011 z" />
      <path
         style="opacity:0.438881;fill:#ffcc00;stroke-width:0.162308"
         d="m 29.88138,50.308039 a 12.910267,12.910267 0 0 1 0.446484,0.02429 8.598958,8.598958 0 0 0 -0.446484,-0.02429 z"
         id="circle28512" />
    </g>
    <g
       id="g54045"
       style="opacity:1;fill:url(#linearGradient54084);fill-opacity:1;stroke:none"
       transform="translate(0.047896,2.1910812)">
      <path
         id="rect20615"
         style="fill:url(#linearGradient54113);fill-opacity:1;stroke:none;stroke-width:0.366654"
         d="m 133.80062,29.905668 v 46.219916 h 8.59895 V 42.89129 c 0,-7.194021 -3.83515,-12.985622 -8.59895,-12.985622 z" />
      <path
         id="path53892"
         style="fill:url(#linearGradient54115);fill-opacity:1;stroke:none;stroke-width:0.285874"
         d="m 124.20033,41.219705 c 0,4.763787 3.52074,8.598959 7.89402,8.598959 h 6.15439 6.1544 c 4.37327,0 7.89402,-3.835172 7.89402,-8.598959 h -14.04842 z" />
    </g>
    <g
       id="g54090"
       style="opacity:1;fill:url(#linearGradient54096);fill-opacity:1;stroke:none"
       transform="translate(118.24034,2.1910812)">
      <path
         id="path54086"
         style="fill:url(#linearGradient54092);fill-opacity:1;stroke:none;stroke-width:0.366654"
         d="m 133.80062,29.905668 v 46.219916 h 8.59895 V 42.89129 c 0,-7.194021 -3.83515,-12.985622 -8.59895,-12.985622 z" />
      <path
         id="path54088"
         style="fill:url(#linearGradient54094);fill-opacity:1;stroke:none;stroke-width:0.285874"
         d="m 124.20033,41.219705 c 0,4.763787 3.52074,8.598959 7.89402,8.598959 h 6.15439 6.1544 c 4.37327,0 7.89402,-3.835172 7.89402,-8.598959 h -14.04842 z" />
    </g>
    <path
       id="path54117"
       style="fill:url(#linearGradient54123);fill-opacity:1;stroke:none;stroke-width:0.366654"
       d="m 194.2996,32.096749 v 46.219916 h 8.59895 V 45.082371 c 0,-7.194021 -3.83515,-12.985622 -8.59895,-12.985622 z" />
  </g>
</svg>
